<svg version="1.1" id="Layer_2_xA0_Image_00000054953447226704043690000016088632338459088048_" xmlns="http://www.w3.org/2000/svg" xmlns:xlink="http://www.w3.org/1999/xlink" x="0px" y="0px" viewBox="0 0 61.4 61.4" xml:space="preserve"><style type="text/css">
	.st0{fill:#060808;}
</style><g><path class="st0" d="M7.3,11.5c0.3,0.4,0.7,1,1,1.5c0.4,0.6,0.8,1.3,1.3,1.9c0.4,0.4,0.9,0.8,1.4,1.2c1.1,0.9,2.3,1.7,3.4,2.6
		c0.4,0.3,0.4,0.3,0.1,0.7c-0.6,1.1-1.3,2.2-2,3.3c-0.5,0.9-1.1,1.9-1.6,2.8c-0.1,0.2-0.3,0.5-0.4,0.7c-0.1,0.2-0.2,0.1-0.4,0.1
		c-0.6-0.2-1.2-0.5-1.9-0.7c-0.8-0.4-1.6-0.8-2.5-1.2c-0.5-0.2-0.8-0.6-0.9-1.1c-0.3-0.9-0.6-1.8-0.8-2.7c-0.3-1.1-0.7-2.2-1-3.4
		c0-0.1-0.1-0.2-0.1-0.3c-0.3-0.6,0.1-1,0.4-1.3c0.8-0.9,1.5-1.8,2.3-2.7C6.3,12.4,6.8,12,7.3,11.5z"></path><path class="st0" d="M46.6,18.9c0.3-0.3,0.6-0.5,1-0.8c1.2-0.9,2.5-1.8,3.6-2.7c0.4-0.3,0.7-0.7,0.9-1.1c0.6-0.9,1.3-1.8,1.9-2.7
		c0.1-0.2,0.2-0.1,0.3,0c0.5,0.6,1.1,1.1,1.6,1.7c0.5,0.6,1,1.2,1.5,1.7c0.3,0.4,0.6,0.7,0.9,1.1c0.1,0.1,0.1,0.2,0,0.3
		c-0.4,1.2-0.8,2.5-1.1,3.7c-0.3,1.1-0.7,2.1-1,3.2c-0.1,0.4-0.4,0.6-0.7,0.8c-1.1,0.5-2.2,1-3.2,1.5c-0.4,0.2-0.9,0.4-1.4,0.5
		c-0.1,0-0.2,0-0.2-0.1c-0.6-1-1.1-2-1.7-3c-0.5-0.9-1-1.8-1.6-2.7C47.2,19.9,46.9,19.5,46.6,18.9z"></path><path class="st0" d="M49.2,44.2c0.3,0.1,0.6,0.2,0.9,0.3c0.6,0.3,1.3,0.6,1.9,0.8c0.4,0.1,0.4,0.5,0.5,0.8c0.3,0.9,0.6,1.7,0.8,2.6
		c0.6,1.8,1.1,3.5,1.7,5.3c0,0.1,0,0.2-0.1,0.3c-0.5,0.6-1.2,1.1-1.9,1.6c-0.9,0.7-1.8,1.3-2.7,2c-0.1,0.1-0.2,0.1-0.3,0
		c-0.4-0.5-0.9-1-1.3-1.5c-0.6-0.6-1.2-1.2-1.8-1.8c-0.8-0.7-1.7-1.3-2.5-1.9c-0.3-0.2-0.5-0.4-0.8-0.5c-0.3-0.1-0.2-0.2-0.1-0.4
		c0.3-0.4,0.6-0.8,0.8-1.2c0.8-1.1,1.6-2.1,2.4-3.2c0.5-0.7,1-1.3,1.5-2c0.2-0.3,0.5-0.7,0.7-1C49,44.3,49.1,44.2,49.2,44.2z"></path><path class="st0" d="M6.3,54.1c0.1-0.5,0.3-0.9,0.4-1.3c0.6-1.7,1.1-3.5,1.7-5.2C8.6,47,8.8,46.3,9,45.7c0.1-0.1,0.2-0.3,0.4-0.3
		c0.8-0.4,1.7-0.7,2.5-1.1c0.2-0.1,0.4-0.1,0.6,0.2c1.1,1.5,2.1,3,3.2,4.5c0.7,1,1.5,2,2.2,3c0.1,0.1,0.1,0.2-0.1,0.3
		c-1,0.6-2,1.2-2.9,1.9c-0.8,0.6-1.5,1.4-2.2,2.1c-0.5,0.6-1,1.2-1.5,1.7c0,0-0.2,0-0.3,0c-1-0.7-1.9-1.4-2.8-2.2
		c-0.5-0.4-1-0.8-1.5-1.2C6.5,54.4,6.4,54.3,6.3,54.1z"></path><g><g><path class="st0" d="M49.6,27.9c-0.4-1-0.9-2-1.4-3c-0.6-1.2-1.2-2.5-1.9-3.7c-0.5-0.9-1-1.7-1.5-2.6c-0.3-0.5-0.5-0.9-0.8-1.3
				c-0.4-0.5-1-0.9-1.5-1.4c-0.6-0.5-1.2-1-1.9-1.5c-0.5-0.4-1-0.8-1.5-1.2c-0.2,0.2-0.4,0.3-0.5,0.5c-0.6,0.7-1.3,1.3-1.8,2
				c-0.1,0.2-0.3,0.2-0.5,0.2c-1.3,0-2.7,0-4,0c-2.5,0-4.9,0-7.4,0c-0.1,0-0.2,0-0.3-0.1c-0.3-0.3-0.5-0.6-0.8-0.9
				c-0.5-0.5-1.1-1.1-1.6-1.6c0,0-0.2-0.1-0.2,0c-0.3,0.2-0.6,0.5-0.9,0.8c-0.9,0.7-1.8,1.4-2.7,2.1c-0.6,0.4-1.1,0.9-1.4,1.6
				c-0.3,0.5-0.6,1.1-0.9,1.6c-0.7,1.3-1.5,2.5-2.2,3.8c-0.8,1.5-1.5,3.1-2.2,4.7c0,0.1,0,0.1,0,0.2c0,0.7,0,1.5,0,2.2
				c0,0.8,0,1.6,0.1,2.4c0,0.6,0.1,1.3,0.1,1.9c0,0.8,0.1,1.5,0.1,2.3c0,0.4,0,0.8,0,1.2c0,0.6,0,1.2,0,1.8c0,0.2,0.1,0.4,0.2,0.6
				c1,1.5,2.1,3,3.1,4.6c1.5,2.1,2.9,4.3,4.4,6.4c0.3,0.4,0.5,0.8,0.8,1.1c0.3,0.5,0.9,0.6,1.3,0.8c1.5,0.7,3.1,1.3,4.6,2
				c0.8,0.3,1.5,0.6,2.3,1c0.7,0.3,1.3,0.6,2,0.8c0.1,0,0.2,0,0.3,0c1-0.4,2.1-0.9,3.1-1.3c1.1-0.5,2.1-0.9,3.2-1.4
				c0.9-0.4,1.8-0.8,2.7-1.2c0.4-0.2,0.9-0.3,1.1-0.7c0.5-0.7,1-1.5,1.5-2.2c1.3-1.8,2.5-3.7,3.8-5.5c1-1.5,2-2.9,3-4.4
				c0.1-0.2,0.2-0.4,0.2-0.6c0-0.7-0.1-1.5-0.1-2.2c0-0.7,0.1-1.3,0.1-2c0-0.7,0.1-1.5,0.1-2.2c0-0.7,0.1-1.4,0.1-2.1
				c0-0.9,0-1.8,0-2.8C49.8,28.4,49.7,28.1,49.6,27.9z M42.9,31.5c-1,2-2,4-3,5.9c-1,2-2.1,4-3.1,6c-0.7,1.3-1.3,2.7-2,4
				c-0.4,0.7-0.8,1.4-1.2,2.2c-0.1,0.2-0.2,0.2-0.4,0.1c-1.4-0.5-2.9-0.9-4.3-1.3c-1.1-0.3-2.1-0.7-3.2-1c-0.9-0.3-1.8-0.5-2.7-0.8
				c-0.1,0-0.2-0.1-0.3-0.2c-0.6-1.3-1.2-2.6-1.7-3.9c-0.2-0.5-0.5-1-0.7-1.5c0,0,0-0.1,0-0.1c0.2,0.1,0.4,0.1,0.6,0.2
				c1,0.4,2,0.8,3,1.2c1,0.4,2,0.9,3,1.3c0.9,0.4,1.7,0.7,2.6,1.1c0.3,0.1,0.6,0.2,0.9,0.4c0.2,0.1,0.3,0,0.5-0.1
				c0.9-1.3,1.7-2.7,2.6-4c0.9-1.4,1.8-2.7,2.7-4.1c0.6-0.9,1.1-1.7,1.7-2.6c0-0.1,0-0.2,0-0.3c-0.6-0.7-1.2-1.4-1.7-2.1
				c-0.7-0.9-1.4-1.8-2.2-2.6c-0.5-0.6-0.9-1.1-1.4-1.7c-0.3-0.3-0.5-0.6-0.7-1c-0.2-0.2-0.3-0.3-0.6-0.1c-1.5,0.8-3,1.5-4.6,2.2
				c-0.5,0.2-0.9,0.4-1.4,0.6c-0.2,0.1-0.2,0.2-0.2,0.4c0.1,0.3,0.1,0.7,0.2,1.1c0.1,0.6,0.1,1.1,0.2,1.7c0,0.3,0.1,0.6,0.1,0.9
				c0,0.4,0.1,0.8,0.1,1.2c0,0.1,0.1,0.2,0.2,0.2c0.6,0.1,1.2,0.3,1.7,0.4c0.2,0,0.4,0.1,0.5,0.1c0.4,0.1,0.7-0.2,1-0.4
				c1-0.6,2-1.3,2.9-1.9c0.1,0,0.2-0.1,0.3-0.2c-0.1,0.3-0.2,0.6-0.4,0.9c-0.4,1-0.8,2.1-1.3,3.1c-0.4,0.9-0.7,1.8-1.1,2.7
				c-0.1,0.2-0.2,0.2-0.3,0.1c-0.4-0.2-0.8-0.3-1.3-0.5c-1.1-0.4-2.1-0.9-3.2-1.3c-0.8-0.3-1.5-0.6-2.3-0.9
				c-0.2-0.1-0.4-0.3-0.5-0.4c-0.6-1.1-1.2-2.2-1.8-3.3c-0.7-1.3-1.5-2.7-2.2-4c0,0,0-0.1-0.1-0.1c0.4-0.3,0.8-0.5,1.2-0.8
				c1.2-0.8,2.3-1.5,3.5-2.3c1.3-0.8,2.6-1.7,3.9-2.6c1.2-0.8,2.4-1.5,3.6-2.3c0.2-0.1,0.3-0.1,0.5,0c1,0.9,2.1,1.8,3.1,2.7
				c0.7,0.6,1.4,1.2,2.1,1.7c0.9,0.7,1.7,1.4,2.6,2.2c1,0.9,2,1.7,3.1,2.6c0.4,0.3,0.8,0.7,1.2,1C43,31.2,43,31.3,42.9,31.5z"></path></g></g><path class="st0" d="M38.5,10c-0.4-0.5-0.7-1-1.1-1.5c-0.9-1.2-1.9-2.3-3.1-3.2c-1-0.7-2-1.4-3.1-1.9c-0.2-0.1-0.4-0.1-0.6,0
		c-0.6,0.2-1.1,0.4-1.6,0.7c-0.8,0.5-1.7,1.1-2.4,1.7c-0.6,0.5-1.2,1.1-1.7,1.7c-0.7,0.8-1.3,1.7-1.9,2.5c0,0.1,0,0.2,0,0.3
		c0.4,0.5,0.9,1,1.3,1.5c0.6,0.7,1.2,1.3,1.7,2c0.3,0.3,0.6,0.6,1.1,0.5c0.3-0.1,0.6,0,0.9,0c2.1,0,4.1,0,6.2,0c0,0,0,0,0,0
		c0.1,0,0.2,0,0.3,0c0.2-0.1,0.4,0,0.5-0.2c0.3-0.4,0.7-0.8,1.1-1.2c0.8-0.9,1.5-1.7,2.3-2.6C38.6,10.2,38.6,10.1,38.5,10z
		 M27.7,8.4c0,0.8-0.4,1.3-1.1,1.6c-0.3,0.2-0.7,0.2-1,0c-0.3-0.3-0.4-0.7-0.3-1.1c0.2-0.5,0.4-0.9,0.8-1.2c0.4-0.3,0.8-0.3,1.2-0.2
		c0.2,0,0.3,0.4,0.4,0.7C27.7,8.3,27.7,8.4,27.7,8.4z M35.9,9.9c-0.2,0.3-0.7,0.3-1,0.2c-0.7-0.3-1.2-0.9-1.2-1.6
		c0-0.3,0.1-0.6,0.3-0.9c0.1-0.2,0.5-0.2,0.7-0.2c0.8,0.1,1.5,1,1.5,1.8C36.1,9.5,36,9.7,35.9,9.9z"></path></g></svg>